<svg xmlns="http://www.w3.org/2000/svg" viewBox="0 0 512 512"><defs><style>.cls-1{fill:#dc7da7;}.cls-2{fill:#a2b833;}.cls-3{fill:#eaac2e;}.cls-4{fill:#d39829;}.cls-5{fill:#76c27d;}.cls-6{fill:#6aaa6e;}.cls-7{fill:#72392f;}.cls-8{fill:#60322c;}.cls-9{fill:#db3a46;}.cls-10{fill:#a52f3c;}.cls-11{fill:#f1ce34;}.cls-12{fill:#d5b72f;}.cls-13{fill:#f0c788;}.cls-14{fill:#fff;}.cls-15{fill:#313d74;}.cls-16{fill:#f1dd75;}.cls-17{fill:#9f2e39;}.cls-18{fill:#cecdcd;}.cls-19{fill:#d7c66b;}.cls-20{fill:#d0b32e;}</style></defs><title>Food</title><g id="BULINE"><circle class="cls-1" cx="256" cy="256" r="256"/></g><g id="Icons"><path class="cls-2" d="M458.09,427a5.89,5.89,0,0,1-.21.59c-.08.2-.17.4-.26.59a10.77,10.77,0,0,1-.71,1.24l-.26.37a10.15,10.15,0,0,1-1.5,1.64c-.16.14-.32.28-.49.41a10.3,10.3,0,0,1-1.39.9,9,9,0,0,1-1.41.64c-.25.09-.5.17-.76.24a8.62,8.62,0,0,1-1.34.28,4.43,4.43,0,0,1-.51.06l-.31,0-.59,0H440a256,256,0,0,1-368,0H62.54a16.52,16.52,0,0,1-13.49-7Z"/><path class="cls-3" d="M70.52,364.74H310a13,13,0,0,1,13,13v20.38a18.94,18.94,0,0,1-18.94,18.94H76.41a18.94,18.94,0,0,1-18.94-18.94V377.79a13,13,0,0,1,13-13Z"/><path class="cls-4" d="M147,417.11H76.41a18.94,18.94,0,0,1-18.94-18.94V377.79a13.05,13.05,0,0,1,13-13.05h70.56A13,13,0,0,0,128,377.79v20.38A18.93,18.93,0,0,0,147,417.11Z"/><path class="cls-5" d="M295.86,355a110.14,110.14,0,0,0-27.93,3.29A65.64,65.64,0,0,0,246.56,355c-9.89,0-18.77,1.83-24.91,4.74-8-2.91-19.63-4.74-32.55-4.74-14.12,0-26.68,2.19-34.69,5.58-5-3.39-13-5.58-21.86-5.58-8.63,0-16.34,2.06-21.4,5.27-8-3.21-20.26-5.27-34-5.27-24.2,0-43.82,6.41-43.82,14.32S53,383.62,77.19,383.62c13.7,0,25.92-2.05,34-5.27,5.06,3.22,12.77,5.27,21.4,5.27,8.9,0,16.81-2.18,21.86-5.57,8,3.39,20.57,5.57,34.69,5.57,12.92,0,24.53-1.83,32.55-4.73,6.14,2.9,15,4.73,24.91,4.73a65.66,65.66,0,0,0,21.37-3.28,110.18,110.18,0,0,0,27.93,3.28c24.21,0,43.83-6.41,43.83-14.31S320.07,355,295.86,355Z"/><path class="cls-6" d="M339.69,369.31c0,7.91-19.63,14.31-43.83,14.31a109.72,109.72,0,0,1-27.93-3.28,65.39,65.39,0,0,1-21.37,3.28c-9.88,0-18.77-1.82-24.9-4.73-8,2.91-19.64,4.73-32.56,4.73-14.12,0-26.67-2.18-34.69-5.57-5,3.39-13,5.57-21.86,5.57-8.63,0-16.34-2.05-21.4-5.26-8,3.21-20.26,5.26-34,5.26-24.2,0-43.82-6.4-43.82-14.31,0-2.28,1.64-4.44,4.55-6.35,7.17,4.71,22.06,8,39.27,8,13.7,0,25.93-2.05,34-5.26,5.06,3.21,12.77,5.26,21.4,5.26,8.89,0,16.81-2.18,21.86-5.57,8,3.39,20.57,5.57,34.69,5.57,12.92,0,24.54-1.82,32.56-4.73,6.13,2.91,15,4.73,24.9,4.73a65.39,65.39,0,0,0,21.37-3.28,109.72,109.72,0,0,0,27.93,3.28c17.22,0,32.11-3.24,39.28-8C338.05,364.87,339.69,367,339.69,369.31Z"/><rect class="cls-7" x="50.02" y="316.31" width="280.46" height="43.93" rx="17.27"/><path class="cls-8" d="M139.16,360.23H67.29A17.27,17.27,0,0,1,50,343v-9.4a17.27,17.27,0,0,1,17.27-17.26h71.87a17.27,17.27,0,0,0-17.27,17.26V343A17.27,17.27,0,0,0,139.16,360.23Z"/><circle class="cls-8" cx="206.29" cy="346.91" r="8.64"/><circle class="cls-8" cx="249.29" cy="346.91" r="8.64"/><circle class="cls-8" cx="295.86" cy="344.11" r="11.44"/><rect class="cls-9" x="67.29" y="291.77" width="243.62" height="24.54" rx="9.92"/><path class="cls-10" d="M148.75,316.31H77.2a9.92,9.92,0,0,1-9.91-9.93v-4.69a9.91,9.91,0,0,1,9.91-9.92h71.55a9.92,9.92,0,0,0-9.92,9.92v4.69A9.93,9.93,0,0,0,148.75,316.31Z"/><path class="cls-11" d="M89.39,291.77H201.14l-35.14,44a8.93,8.93,0,0,1-12.11,1.71Z"/><path class="cls-12" d="M200.59,291.77l-35.15,44a8.91,8.91,0,0,1-12.11,1.71l-8.06-5.71,31.94-40Z"/><path class="cls-11" d="M163.08,291.77H290.73l-35,38.73a8.76,8.76,0,0,1-10.39,2Z"/><path class="cls-12" d="M262,323.58l-6.25,6.92a8.76,8.76,0,0,1-10.39,2l-82.29-40.71H197.7Z"/><path class="cls-3" d="M139.86,187.81H240.65A82.39,82.39,0,0,1,323,270.2v10.3A12.05,12.05,0,0,1,311,292.55H69.52A12.05,12.05,0,0,1,57.47,280.5V270.2a82.39,82.39,0,0,1,82.39-82.39Z"/><path class="cls-4" d="M126.71,270.2v10.3a12.06,12.06,0,0,0,12,12.05H69.52a12.06,12.06,0,0,1-12-12.05V270.2a82.39,82.39,0,0,1,82.39-82.39H209.1A82.39,82.39,0,0,0,126.71,270.2Z"/><path class="cls-4" d="M235.39,264.5h0a7.89,7.89,0,0,1,7.89,7.89v20.16a0,0,0,0,1,0,0H227.5a0,0,0,0,1,0,0V272.39A7.89,7.89,0,0,1,235.39,264.5Z"/><path class="cls-4" d="M174.48,264.5h0a7.89,7.89,0,0,1,7.89,7.89v20.16a0,0,0,0,1,0,0H166.59a0,0,0,0,1,0,0V272.39A7.89,7.89,0,0,1,174.48,264.5Z"/><path class="cls-4" d="M288,264.5h0a7.89,7.89,0,0,1,7.89,7.89v20.16a0,0,0,0,1,0,0H280.09a0,0,0,0,1,0,0V272.39A7.89,7.89,0,0,1,288,264.5Z"/><ellipse class="cls-13" cx="100.06" cy="236.7" rx="6.57" ry="11.91" transform="translate(-153.49 194.85) rotate(-57.71)"/><ellipse class="cls-13" cx="240.65" cy="207.09" rx="6.57" ry="11.91" transform="translate(-62.97 299.91) rotate(-57.71)"/><ellipse class="cls-13" cx="282.28" cy="240.18" rx="11.91" ry="6.57" transform="translate(-71.55 350.51) rotate(-57.71)"/><ellipse class="cls-13" cx="138.11" cy="207.09" rx="11.91" ry="6.57" transform="translate(-108.08 243.86) rotate(-64.8)"/><ellipse class="cls-13" cx="193.32" cy="240.18" rx="11.91" ry="6.57" transform="translate(-106.32 312.82) rotate(-64.8)"/><path class="cls-14" d="M339.34,406.31l-5.78,16.6a16.81,16.81,0,0,1-2.1,4.09,16.53,16.53,0,0,1-13.5,7H62.54a16.52,16.52,0,0,1-13.49-7,16.14,16.14,0,0,1-2.1-4.09l-5.78-16.6a7.57,7.57,0,0,1,7.15-10.07H332.18A7.58,7.58,0,0,1,339.34,406.31Z"/><path class="cls-15" d="M399.81,8h8.32a6.46,6.46,0,0,1,6.46,6.46v127a0,0,0,0,1,0,0H393.35a0,0,0,0,1,0,0v-127A6.46,6.46,0,0,1,399.81,8Z"/><path class="cls-16" d="M367,141.5h75a31.87,31.87,0,0,1,31.87,31.87v0a0,0,0,0,1,0,0H335.13a0,0,0,0,1,0,0v0A31.87,31.87,0,0,1,367,141.5Z"/><path class="cls-9" d="M473.91,193.27l-9.6,145.13L462.08,372l-2.28,34.42-.32,4.91-.19,2.81-.68,10.23c0,.28-.05.55-.09.83s-.07.44-.12.65a1.1,1.1,0,0,1-.06.26c0,.18-.09.36-.14.53a2.13,2.13,0,0,1-.11.33,5.89,5.89,0,0,1-.21.59c-.08.2-.17.4-.26.59a10.77,10.77,0,0,1-.71,1.24l-.26.37a10.15,10.15,0,0,1-1.5,1.64c-.16.14-.32.28-.49.41a10.3,10.3,0,0,1-1.39.9,9,9,0,0,1-1.41.64c-.25.09-.5.17-.76.24a10.29,10.29,0,0,1-1.34.28,4.43,4.43,0,0,1-.51.06l-.31,0-.59,0h-83.8a10.28,10.28,0,0,1-9.74-7,10.08,10.08,0,0,1-.52-2.6l-.68-10.23-5.53-83.58-2.54-38.4-2.61-39.3-2.53-38.4L339,193.27Z"/><path class="cls-14" d="M459.29,414.17l-.68,10.23c0,.28-.05.55-.09.83s-.07.44-.12.65a1.1,1.1,0,0,1-.06.26c0,.18-.09.36-.14.53a2.13,2.13,0,0,1-.11.33,5.89,5.89,0,0,1-.21.59c-.08.2-.17.4-.26.59a10.77,10.77,0,0,1-.71,1.24l-.26.37a10.15,10.15,0,0,1-1.5,1.64c-.16.14-.32.28-.49.41a10.3,10.3,0,0,1-1.39.9,9,9,0,0,1-1.41.64c-.25.09-.5.17-.76.24a8.62,8.62,0,0,1-1.34.28,4.43,4.43,0,0,1-.51.06l-.31,0-.59,0h-83.8a10.28,10.28,0,0,1-9.74-7,10.08,10.08,0,0,1-.52-2.6l-.68-10.23Z"/><polygon class="cls-14" points="464.31 338.4 462.08 372.03 342.94 252.89 340.4 214.49 464.31 338.4"/><path class="cls-14" d="M459.8,406.45l-.32,4.91-.19,2.81-.68,10.23c0,.28-.05.55-.09.83s-.07.44-.12.65a1.1,1.1,0,0,1-.06.26c0,.18-.09.36-.14.53a2.13,2.13,0,0,1-.11.33,5.89,5.89,0,0,1-.21.59c-.08.2-.17.4-.26.59a10.77,10.77,0,0,1-.71,1.24l-.26.37a10.15,10.15,0,0,1-1.5,1.64c-.16.14-.32.28-.49.41a10.3,10.3,0,0,1-1.39.9,9,9,0,0,1-1.41.64c-.25.09-.5.17-.76.24L444.48,427l-12.83-12.83-39.58-39.59-44-44-2.54-38.4,44,44Z"/><path class="cls-17" d="M405.63,434H364.55a10.29,10.29,0,0,1-10.26-9.6l-.68-10.23-5.53-83.58-2.54-38.4-2.61-39.3-2.53-38.4L339,193.27h41.08l1.41,21.22,2.54,38.4.37,5.59,2.23,33.71.31,4.69,2.23,33.71.37,5.59,2.54,38.4,2.62,39.59.68,10.23A10.29,10.29,0,0,0,405.63,434Z"/><path class="cls-18" d="M405.63,434H364.55a10.29,10.29,0,0,1-10.26-9.6l-.68-10.23h41.08l.68,10.23A10.29,10.29,0,0,0,405.63,434Z"/><polygon class="cls-18" points="386.93 296.88 342.94 252.89 340.4 214.49 384.39 258.48 386.62 292.19 386.93 296.88"/><polygon class="cls-18" points="389.53 336.18 392.07 374.58 348.08 330.59 345.54 292.19 389.53 336.18"/><rect class="cls-11" x="326.25" y="173.37" width="156.52" height="19.9" rx="8.89"/><path class="cls-19" d="M407.37,141.5a31.87,31.87,0,0,0-31.87,31.88H335.13A31.87,31.87,0,0,1,367,141.5Z"/><path class="cls-20" d="M375.5,193.27H335.13a8.88,8.88,0,0,1-8.88-8.89v-2.12a8.87,8.87,0,0,1,8.88-8.88H375.5a8.88,8.88,0,0,0-8.89,8.88v2.12A8.89,8.89,0,0,0,375.5,193.27Z"/></g></svg>