<?xml version="1.0" encoding="UTF-8"?>
<svg xmlns="http://www.w3.org/2000/svg" xmlns:xlink="http://www.w3.org/1999/xlink" width="2607" height="2081" viewBox="0 0 2607 2081">

<path fill="none" stroke-width="5.6693" stroke-linecap="butt" stroke-linejoin="miter" stroke="rgb(0%, 0%, 0%)" stroke-opacity="1" stroke-miterlimit="22.9256" d="M 10.273438 20805.898438 L 26062.8125 20805.898438 L 26062.8125 5.898438 L 10.273438 5.898438 Z M 10.273438 20805.898438 " transform="matrix(0.1, 0, 0, -0.1, 0, 2081)"/>
<path fill-rule="nonzero" fill="rgb(91.40625%, 74.414062%, 33.738708%)" fill-opacity="1" d="M 1573.390625 700.988281 L 1515.800781 700.988281 C 1507.378906 715.101562 1498.601562 729 1489.699219 742.828125 L 1573.390625 742.828125 C 1593.871094 742.828125 1610.539062 759.488281 1610.539062 779.980469 L 1610.539062 1392.730469 C 1610.539062 1413.214844 1593.871094 1429.878906 1573.390625 1429.878906 L 932.726562 1429.878906 C 912.246094 1429.878906 895.578125 1413.214844 895.578125 1392.730469 L 895.578125 779.980469 C 895.578125 759.488281 912.246094 742.828125 932.726562 742.828125 L 1082.039062 742.828125 C 1071.621094 729.238281 1061.679688 715.359375 1052.46875 700.988281 L 932.726562 700.988281 C 889.105469 700.988281 853.742188 736.359375 853.742188 779.980469 L 853.742188 1392.730469 C 853.742188 1436.355469 889.105469 1471.71875 932.726562 1471.71875 L 1573.390625 1471.71875 C 1617.011719 1471.71875 1652.371094 1436.355469 1652.371094 1392.730469 L 1652.371094 779.980469 C 1652.371094 736.359375 1617.011719 700.988281 1573.390625 700.988281 "/>
<path fill-rule="nonzero" fill="rgb(91.40625%, 74.414062%, 33.738708%)" fill-opacity="1" d="M 1575.601562 661.789062 L 1537.511719 661.789062 C 1534.460938 667.828125 1531.289062 673.800781 1528.019531 679.71875 L 1575.601562 679.71875 C 1628.539062 679.71875 1671.609375 722.789062 1671.609375 775.730469 L 1671.609375 1396.980469 C 1671.609375 1449.921875 1628.539062 1492.988281 1575.601562 1492.988281 L 930.519531 1492.988281 C 877.578125 1492.988281 834.511719 1449.921875 834.511719 1396.980469 L 834.511719 775.730469 C 834.511719 722.789062 877.578125 679.71875 930.519531 679.71875 L 1039.609375 679.71875 C 1036.269531 673.839844 1033.078125 667.859375 1030 661.789062 L 930.519531 661.789062 C 867.59375 661.789062 816.578125 712.800781 816.578125 775.730469 L 816.578125 1396.980469 C 816.578125 1459.90625 867.59375 1510.917969 930.519531 1510.917969 L 1575.601562 1510.917969 C 1638.519531 1510.917969 1689.53125 1459.90625 1689.53125 1396.980469 L 1689.53125 775.730469 C 1689.53125 712.800781 1638.519531 661.789062 1575.601562 661.789062 "/>
<path fill-rule="nonzero" fill="rgb(100%, 100%, 100%)" fill-opacity="1" d="M 1570.980469 997.558594 C 1577.261719 997.558594 1583.121094 994.390625 1586.558594 989.128906 C 1590 983.871094 1590.558594 977.230469 1588.03125 971.46875 C 1541.460938 865.25 1409.101562 788.621094 1253.078125 788.621094 C 1097.050781 788.621094 964.699219 865.25 918.125 971.46875 C 915.601562 977.230469 916.152344 983.871094 919.59375 989.140625 C 923.035156 994.398438 928.898438 997.558594 935.1875 997.558594 L 1570.980469 997.558594 "/>
<path fill-rule="nonzero" fill="rgb(100%, 100%, 100%)" fill-opacity="1" d="M 968.320312 1365.816406 C 986.753906 1384.828125 1012.101562 1395.554688 1038.578125 1395.554688 L 1467.519531 1395.554688 C 1493.988281 1395.554688 1519.351562 1384.824219 1537.78125 1365.824219 C 1559.261719 1343.667969 1576.339844 1318.917969 1588.019531 1292.304688 C 1590.550781 1286.542969 1590 1279.898438 1586.558594 1274.632812 C 1583.121094 1269.371094 1577.25 1266.207031 1570.960938 1266.207031 L 935.144531 1266.207031 C 928.855469 1266.207031 922.996094 1269.382812 919.558594 1274.644531 C 916.117188 1279.902344 915.558594 1286.550781 918.085938 1292.304688 C 929.765625 1318.917969 946.84375 1343.667969 968.320312 1365.816406 "/>
<path fill-rule="nonzero" fill="rgb(91.40625%, 74.414062%, 33.738708%)" fill-opacity="1" d="M 1185.78125 591.851562 C 1170.371094 545.808594 1128.769531 518.238281 1092.859375 530.261719 C 1056.949219 542.28125 1040.328125 589.339844 1055.738281 635.390625 C 1071.148438 681.421875 1112.761719 709 1148.671875 696.96875 C 1184.570312 684.949219 1201.191406 637.890625 1185.78125 591.851562 Z M 1117.460938 603.761719 C 1100.871094 609.320312 1082.910156 600.371094 1077.359375 583.78125 C 1071.808594 567.191406 1080.75 549.238281 1097.339844 543.679688 C 1113.941406 538.121094 1131.890625 547.070312 1137.441406 563.660156 C 1143 580.261719 1134.050781 598.210938 1117.460938 603.761719 "/>
<path fill-rule="nonzero" fill="rgb(91.40625%, 74.414062%, 33.738708%)" fill-opacity="1" d="M 1067.621094 454.871094 C 1067.621094 454.871094 1070.910156 461.28125 1076.191406 472.660156 C 1081.46875 484.03125 1088.839844 500.328125 1097.019531 520.121094 C 1101.148438 530 1105.621094 540.710938 1110.019531 552.140625 C 1114.480469 563.550781 1119.289062 575.550781 1123.910156 588.089844 C 1133.261719 613.109375 1142.761719 639.960938 1151.839844 666.960938 C 1156.289062 680.488281 1160.789062 694 1164.980469 707.378906 C 1169.25 720.730469 1173.238281 733.949219 1177.058594 746.75 C 1180.910156 759.539062 1184.320312 772.011719 1187.609375 783.808594 C 1190.980469 795.589844 1193.871094 806.820312 1196.511719 817.199219 C 1201.890625 837.929688 1205.808594 855.390625 1208.429688 867.648438 C 1211.058594 879.910156 1212.28125 887.011719 1212.28125 887.011719 C 1212.28125 887.011719 1208.980469 880.601562 1203.699219 869.230469 C 1198.410156 857.859375 1191.03125 841.558594 1182.851562 821.769531 C 1178.710938 811.898438 1174.25 801.191406 1169.851562 789.75 C 1165.371094 778.351562 1160.578125 766.339844 1155.960938 753.808594 C 1151.300781 741.289062 1146.53125 728.339844 1141.910156 715.109375 C 1137.191406 701.898438 1132.648438 688.398438 1128.058594 674.921875 C 1119.058594 647.898438 1110.480469 620.738281 1102.878906 595.128906 C 1099.019531 582.339844 1095.628906 569.859375 1092.328125 558.058594 C 1088.949219 546.289062 1086.078125 535.050781 1083.429688 524.671875 C 1078.050781 503.949219 1074.109375 486.488281 1071.488281 474.230469 C 1068.851562 461.96875 1067.621094 454.871094 1067.621094 454.871094 "/>
<path fill-rule="nonzero" fill="rgb(91.40625%, 74.414062%, 33.738708%)" fill-opacity="1" d="M 1429.730469 587.578125 C 1393.820312 575.558594 1352.210938 603.128906 1336.800781 649.171875 C 1321.398438 695.210938 1338.011719 742.269531 1373.921875 754.289062 C 1409.828125 766.320312 1451.441406 738.738281 1466.839844 692.710938 C 1482.261719 646.660156 1465.640625 599.601562 1429.730469 587.578125 Z M 1445.21875 641.101562 C 1439.679688 657.691406 1421.710938 666.640625 1405.121094 661.078125 C 1388.53125 655.53125 1379.589844 637.578125 1385.140625 620.980469 C 1390.699219 604.390625 1408.648438 595.441406 1425.25 601 C 1441.839844 606.558594 1450.78125 624.511719 1445.21875 641.101562 "/>
<path fill-rule="nonzero" fill="rgb(91.40625%, 74.414062%, 33.738708%)" fill-opacity="1" d="M 1454.960938 512.199219 C 1454.960938 512.199219 1453.730469 519.289062 1451.101562 531.550781 C 1448.46875 543.808594 1444.539062 561.269531 1439.160156 581.988281 C 1436.511719 592.371094 1433.628906 603.609375 1430.261719 615.378906 C 1426.949219 627.179688 1423.558594 639.660156 1419.710938 652.441406 C 1412.109375 678.058594 1403.53125 705.21875 1394.519531 732.238281 C 1389.941406 745.71875 1385.398438 759.21875 1380.679688 772.421875 C 1376.058594 785.660156 1371.289062 798.609375 1366.621094 811.128906 C 1362 823.660156 1357.21875 835.671875 1352.730469 847.070312 C 1348.339844 858.511719 1343.878906 869.21875 1339.738281 879.089844 C 1331.558594 898.878906 1324.171875 915.179688 1318.890625 926.550781 C 1313.601562 937.921875 1310.308594 944.328125 1310.308594 944.328125 C 1310.308594 944.328125 1311.53125 937.230469 1314.160156 924.96875 C 1316.78125 912.710938 1320.699219 895.25 1326.078125 874.519531 C 1328.71875 864.140625 1331.609375 852.910156 1334.980469 841.128906 C 1338.269531 829.328125 1341.679688 816.859375 1345.53125 804.070312 C 1349.339844 791.269531 1353.328125 778.050781 1357.609375 764.699219 C 1361.789062 751.320312 1366.289062 737.808594 1370.75 724.28125 C 1379.820312 697.289062 1389.320312 670.429688 1398.679688 645.410156 C 1403.289062 632.871094 1408.101562 620.871094 1412.570312 609.460938 C 1416.960938 598.03125 1421.429688 587.320312 1425.558594 577.441406 C 1433.738281 557.648438 1441.109375 541.351562 1446.390625 529.96875 C 1451.671875 518.601562 1454.960938 512.199219 1454.960938 512.199219 "/>
<path fill-rule="nonzero" fill="rgb(100%, 100%, 100%)" fill-opacity="1" d="M 1891.96875 1028.160156 L 614.148438 1028.160156 L 723.6875 1131.703125 L 614.148438 1235.246094 L 1891.96875 1235.246094 L 1787.898438 1131.703125 L 1891.96875 1028.160156 "/>
<path fill-rule="nonzero" fill="rgb(19.213867%, 30.979919%, 7.054138%)" fill-opacity="1" d="M 747.78125 1200.460938 L 747.78125 1066.71875 L 838 1066.71875 L 838 1082.410156 L 765.527344 1082.410156 L 765.527344 1124.066406 L 828.289062 1124.066406 L 828.289062 1139.753906 L 765.527344 1139.753906 L 765.527344 1200.460938 L 747.78125 1200.460938 "/>
<path fill-rule="nonzero" fill="rgb(19.213867%, 30.979919%, 7.054138%)" fill-opacity="1" d="M 835.976562 1200.460938 L 887.28125 1066.71875 L 906.738281 1066.71875 L 961.1875 1200.460938 L 941.042969 1200.460938 L 925.570312 1159.929688 L 869.257812 1159.929688 L 854.75 1200.460938 Z M 874.453125 1145.546875 L 920.03125 1145.546875 L 906.085938 1108.46875 C 901.882812 1097.199219 898.707031 1087.890625 896.496094 1080.539062 C 894.660156 1089.261719 892.199219 1097.820312 889.117188 1106.289062 L 874.453125 1145.546875 "/>
<path fill-rule="nonzero" fill="rgb(19.213867%, 30.979919%, 7.054138%)" fill-opacity="1" d="M 969.433594 1157.5 L 986.058594 1156.003906 C 986.835938 1162.730469 988.675781 1168.238281 991.570312 1172.566406 C 994.464844 1176.863281 998.945312 1180.351562 1005.019531 1183.027344 C 1011.089844 1185.671875 1017.941406 1187.011719 1025.53125 1187.011719 C 1032.289062 1187.011719 1038.230469 1186.015625 1043.398438 1183.992188 C 1048.570312 1181.96875 1052.398438 1179.199219 1054.921875 1175.679688 C 1057.441406 1172.160156 1058.71875 1168.335938 1058.71875 1164.222656 C 1058.71875 1160.054688 1057.5 1156.410156 1055.078125 1153.265625 C 1052.648438 1150.152344 1048.628906 1147.539062 1043.03125 1145.390625 C 1039.449219 1144.019531 1031.511719 1141.839844 1019.210938 1138.882812 C 1006.921875 1135.925781 998.324219 1133.15625 993.40625 1130.539062 C 987.023438 1127.179688 982.292969 1123.007812 979.179688 1118.058594 C 976.035156 1113.105469 974.476562 1107.535156 974.476562 1101.402344 C 974.476562 1094.613281 976.40625 1088.296875 980.238281 1082.441406 C 984.066406 1076.558594 989.640625 1072.109375 997.015625 1069.058594 C 1004.359375 1066.011719 1012.550781 1064.480469 1021.550781 1064.480469 C 1031.449219 1064.480469 1040.199219 1066.070312 1047.761719 1069.269531 C 1055.328125 1072.449219 1061.148438 1077.148438 1065.230469 1083.378906 C 1069.300781 1089.570312 1071.480469 1096.609375 1071.789062 1104.453125 L 1054.800781 1105.761719 C 1053.890625 1097.324219 1050.808594 1090.941406 1045.550781 1086.644531 C 1040.289062 1082.320312 1032.511719 1080.171875 1022.230469 1080.171875 C 1011.519531 1080.171875 1003.710938 1082.132812 998.824219 1086.054688 C 993.933594 1089.976562 991.476562 1094.710938 991.476562 1100.25 C 991.476562 1105.042969 993.21875 1108.996094 996.675781 1112.109375 C 1000.101562 1115.191406 1008.96875 1118.398438 1023.351562 1121.636719 C 1037.738281 1124.90625 1047.601562 1127.738281 1052.960938 1130.167969 C 1060.710938 1133.746094 1066.46875 1138.261719 1070.171875 1143.769531 C 1073.878906 1149.25 1075.71875 1155.570312 1075.71875 1162.730469 C 1075.71875 1169.859375 1073.691406 1176.519531 1069.609375 1182.808594 C 1065.539062 1189.097656 1059.710938 1193.984375 1052.089844 1197.472656 C 1044.460938 1200.960938 1035.898438 1202.703125 1026.339844 1202.703125 C 1014.261719 1202.703125 1004.148438 1200.925781 995.988281 1197.410156 C 987.800781 1193.890625 981.421875 1188.601562 976.78125 1181.503906 C 972.113281 1174.433594 969.683594 1166.433594 969.433594 1157.5 "/>
<path fill-rule="nonzero" fill="rgb(19.213867%, 30.979919%, 7.054138%)" fill-opacity="1" d="M 1133.808594 1200.460938 L 1133.808594 1082.410156 L 1089.730469 1082.410156 L 1089.730469 1066.71875 L 1195.628906 1066.71875 L 1195.628906 1082.410156 L 1151.550781 1082.410156 L 1151.550781 1200.460938 L 1133.808594 1200.460938 "/>
<path fill-rule="nonzero" fill="rgb(19.213867%, 30.979919%, 7.054138%)" fill-opacity="1" d="M 1263.371094 1200.460938 L 1263.371094 1066.71875 L 1353.589844 1066.71875 L 1353.589844 1082.410156 L 1281.121094 1082.410156 L 1281.121094 1124.066406 L 1343.878906 1124.066406 L 1343.878906 1139.753906 L 1281.121094 1139.753906 L 1281.121094 1200.460938 L 1263.371094 1200.460938 "/>
<path fill-rule="nonzero" fill="rgb(19.213867%, 30.979919%, 7.054138%)" fill-opacity="1" d="M 1371.121094 1135.367188 C 1371.121094 1113.199219 1377.089844 1095.828125 1389.019531 1083.285156 C 1400.941406 1070.738281 1416.320312 1064.480469 1435.179688 1064.480469 C 1447.539062 1064.480469 1458.660156 1067.441406 1468.589844 1073.320312 C 1478.488281 1079.210938 1486.050781 1087.425781 1491.25 1097.976562 C 1496.449219 1108.5 1499.070312 1120.453125 1499.070312 1133.808594 C 1499.070312 1147.351562 1496.328125 1159.492188 1490.851562 1170.171875 C 1485.371094 1180.878906 1477.621094 1188.972656 1467.589844 1194.453125 C 1457.539062 1199.960938 1446.699219 1202.703125 1435.089844 1202.703125 C 1422.480469 1202.703125 1411.238281 1199.652344 1401.308594 1193.578125 C 1391.410156 1187.511719 1383.878906 1179.230469 1378.78125 1168.707031 C 1373.671875 1158.214844 1371.121094 1147.101562 1371.121094 1135.367188 Z M 1389.421875 1135.675781 C 1389.421875 1151.769531 1393.75 1164.441406 1402.398438 1173.6875 C 1411.058594 1182.933594 1421.921875 1187.570312 1435 1187.570312 C 1448.320312 1187.570312 1459.25 1182.902344 1467.871094 1173.5625 C 1476.460938 1164.222656 1480.761719 1150.960938 1480.761719 1133.777344 C 1480.761719 1122.914062 1478.921875 1113.417969 1475.25 1105.324219 C 1471.578125 1097.230469 1466.191406 1090.941406 1459.121094 1086.488281 C 1452.03125 1082.039062 1444.089844 1079.800781 1435.28125 1079.800781 C 1422.761719 1079.800781 1411.988281 1084.09375 1402.960938 1092.683594 C 1393.941406 1101.277344 1389.421875 1115.597656 1389.421875 1135.675781 "/>
<path fill-rule="nonzero" fill="rgb(19.213867%, 30.979919%, 7.054138%)" fill-opacity="1" d="M 1516.410156 1135.367188 C 1516.410156 1113.199219 1522.378906 1095.828125 1534.308594 1083.285156 C 1546.230469 1070.738281 1561.609375 1064.480469 1580.46875 1064.480469 C 1592.828125 1064.480469 1603.941406 1067.441406 1613.878906 1073.320312 C 1623.78125 1079.210938 1631.339844 1087.425781 1636.539062 1097.976562 C 1641.738281 1108.5 1644.351562 1120.453125 1644.351562 1133.808594 C 1644.351562 1147.351562 1641.609375 1159.492188 1636.128906 1170.171875 C 1630.660156 1180.878906 1622.898438 1188.972656 1612.878906 1194.453125 C 1602.820312 1199.960938 1591.988281 1202.703125 1580.378906 1202.703125 C 1567.769531 1202.703125 1556.53125 1199.652344 1546.601562 1193.578125 C 1536.699219 1187.511719 1529.171875 1179.230469 1524.058594 1168.707031 C 1518.960938 1158.214844 1516.410156 1147.101562 1516.410156 1135.367188 Z M 1534.710938 1135.675781 C 1534.710938 1151.769531 1539.039062 1164.441406 1547.691406 1173.6875 C 1556.351562 1182.933594 1567.210938 1187.570312 1580.289062 1187.570312 C 1593.609375 1187.570312 1604.539062 1182.902344 1613.160156 1173.5625 C 1621.75 1164.222656 1626.050781 1150.960938 1626.050781 1133.777344 C 1626.050781 1122.914062 1624.210938 1113.417969 1620.539062 1105.324219 C 1616.859375 1097.230469 1611.480469 1090.941406 1604.410156 1086.488281 C 1597.308594 1082.039062 1589.378906 1079.800781 1580.570312 1079.800781 C 1568.050781 1079.800781 1557.28125 1084.09375 1548.25 1092.683594 C 1539.21875 1101.277344 1534.710938 1115.597656 1534.710938 1135.675781 "/>
<path fill-rule="nonzero" fill="rgb(19.213867%, 30.979919%, 7.054138%)" fill-opacity="1" d="M 1667.109375 1200.460938 L 1667.109375 1066.71875 L 1713.179688 1066.71875 C 1723.578125 1066.71875 1731.519531 1067.339844 1737 1068.621094 C 1744.660156 1070.398438 1751.191406 1073.601562 1756.609375 1078.210938 C 1763.679688 1084.1875 1768.941406 1091.78125 1772.429688 1101.058594 C 1775.941406 1110.335938 1777.691406 1120.953125 1777.691406 1132.875 C 1777.691406 1143.023438 1776.5 1152.019531 1774.140625 1159.867188 C 1771.769531 1167.710938 1768.71875 1174.21875 1765.019531 1179.355469 C 1761.28125 1184.488281 1757.230469 1188.535156 1752.808594 1191.464844 C 1748.421875 1194.421875 1743.101562 1196.660156 1736.871094 1198.1875 C 1730.621094 1199.714844 1723.460938 1200.460938 1715.359375 1200.460938 Z M 1684.851562 1184.769531 L 1713.371094 1184.769531 C 1722.179688 1184.769531 1729.089844 1183.960938 1734.101562 1182.3125 C 1739.121094 1180.660156 1743.101562 1178.355469 1746.089844 1175.367188 C 1750.261719 1171.164062 1753.53125 1165.5 1755.859375 1158.402344 C 1758.199219 1151.304688 1759.378906 1142.714844 1759.378906 1132.59375 C 1759.378906 1118.585938 1757.078125 1107.816406 1752.5 1100.28125 C 1747.929688 1092.746094 1742.351562 1087.703125 1735.78125 1085.152344 C 1731.050781 1083.316406 1723.429688 1082.410156 1712.898438 1082.410156 L 1684.851562 1082.410156 L 1684.851562 1184.769531 "/>
<path fill-rule="nonzero" fill="rgb(19.213867%, 30.979919%, 7.054138%)" fill-opacity="1" d="M 1075.210938 1351.238281 L 1068.109375 1351.238281 L 1059.058594 1336.070312 C 1057.128906 1332.847656 1055.390625 1330.71875 1053.851562 1329.695312 C 1052.320312 1328.667969 1050.46875 1328.15625 1048.289062 1328.15625 L 1042.941406 1328.15625 L 1042.941406 1351.238281 L 1037.039062 1351.238281 L 1037.039062 1297.308594 L 1052.898438 1297.308594 C 1057.859375 1297.308594 1061.789062 1298.597656 1064.71875 1301.160156 C 1067.628906 1303.722656 1069.101562 1307.222656 1069.101562 1311.675781 C 1069.101562 1319.128906 1065.109375 1323.953125 1057.160156 1326.179688 L 1057.160156 1326.328125 C 1058.671875 1326.992188 1059.921875 1327.855469 1060.910156 1328.945312 C 1061.890625 1330.03125 1063.308594 1332.070312 1065.128906 1335.046875 Z M 1042.941406 1302.847656 L 1042.941406 1322.667969 L 1051.769531 1322.667969 C 1055.089844 1322.667969 1057.769531 1321.691406 1059.808594 1319.753906 C 1061.839844 1317.816406 1062.871094 1315.277344 1062.871094 1312.148438 C 1062.871094 1309.226562 1061.921875 1306.9375 1060.03125 1305.296875 C 1058.128906 1303.660156 1055.410156 1302.847656 1051.839844 1302.847656 L 1042.941406 1302.847656 "/>
<path fill-rule="nonzero" fill="rgb(19.213867%, 30.979919%, 7.054138%)" fill-opacity="1" d="M 1111.109375 1351.238281 L 1082.789062 1351.238281 L 1082.789062 1297.308594 L 1109.898438 1297.308594 L 1109.898438 1302.773438 L 1088.691406 1302.773438 L 1088.691406 1321.089844 L 1108.289062 1321.089844 L 1108.289062 1326.503906 L 1088.691406 1326.503906 L 1088.691406 1345.8125 L 1111.109375 1345.8125 L 1111.109375 1351.238281 "/>
<path fill-rule="nonzero" fill="rgb(19.213867%, 30.979919%, 7.054138%)" fill-opacity="1" d="M 1119.070312 1341.898438 C 1120.730469 1343.335938 1122.949219 1344.5 1125.761719 1345.375 C 1128.539062 1346.261719 1131.128906 1346.699219 1133.5 1346.699219 C 1141.339844 1346.699219 1145.261719 1343.847656 1145.261719 1338.160156 C 1145.261719 1336.523438 1144.851562 1335.085938 1144.039062 1333.832031 C 1143.210938 1332.597656 1142.148438 1331.53125 1140.820312 1330.644531 C 1139.511719 1329.769531 1136.761719 1328.257812 1132.578125 1326.105469 C 1127.558594 1323.515625 1124.050781 1321.128906 1122.089844 1318.941406 C 1120.128906 1316.765625 1119.140625 1314.015625 1119.140625 1310.726562 C 1119.140625 1306.324219 1120.929688 1302.847656 1124.5 1300.285156 C 1128.078125 1297.71875 1132.488281 1296.433594 1137.75 1296.433594 C 1143.070312 1296.433594 1146.890625 1297.070312 1149.179688 1298.347656 L 1149.179688 1305.1875 C 1146.050781 1303.023438 1141.988281 1301.933594 1136.980469 1301.933594 C 1133.558594 1301.933594 1130.769531 1302.660156 1128.609375 1304.121094 C 1126.460938 1305.597656 1125.371094 1307.625 1125.371094 1310.210938 C 1125.371094 1312.550781 1126.128906 1314.464844 1127.660156 1315.9375 C 1129.179688 1317.414062 1132.359375 1319.328125 1137.160156 1321.679688 C 1142.789062 1324.480469 1146.558594 1327.132812 1148.53125 1329.617188 C 1150.480469 1332.121094 1151.449219 1334.820312 1151.449219 1337.722656 C 1151.449219 1342.386719 1149.761719 1345.960938 1146.398438 1348.4375 C 1143.019531 1350.914062 1138.359375 1352.152344 1132.410156 1352.152344 C 1130.519531 1352.152344 1128.160156 1351.851562 1125.320312 1351.253906 C 1122.46875 1350.664062 1120.390625 1349.925781 1119.070312 1349.039062 L 1119.070312 1341.898438 "/>
<path fill-rule="nonzero" fill="rgb(19.213867%, 30.979919%, 7.054138%)" fill-opacity="1" d="M 1193.800781 1302.773438 L 1178.238281 1302.773438 L 1178.238281 1351.238281 L 1172.261719 1351.238281 L 1172.261719 1302.773438 L 1156.769531 1302.773438 L 1156.769531 1297.308594 L 1193.800781 1297.308594 L 1193.800781 1302.773438 "/>
<path fill-rule="nonzero" fill="rgb(19.213867%, 30.979919%, 7.054138%)" fill-opacity="1" d="M 1237.621094 1351.238281 L 1231.070312 1351.238281 L 1225.199219 1335.921875 L 1202.078125 1335.921875 L 1196.628906 1351.238281 L 1190.03125 1351.238281 L 1210.769531 1297.308594 L 1216.78125 1297.308594 Z M 1223.191406 1330.507812 L 1214.570312 1307.199219 C 1214.261719 1306.347656 1213.988281 1305.160156 1213.769531 1303.648438 L 1213.589844 1303.648438 C 1213.320312 1305.335938 1213.019531 1306.523438 1212.710938 1307.199219 L 1204.171875 1330.507812 L 1223.191406 1330.507812 "/>
<path fill-rule="nonzero" fill="rgb(19.213867%, 30.979919%, 7.054138%)" fill-opacity="1" d="M 1283.738281 1329.558594 C 1283.738281 1344.625 1276.949219 1352.152344 1263.371094 1352.152344 C 1250.421875 1352.152344 1243.960938 1344.898438 1243.960938 1330.394531 L 1243.960938 1297.308594 L 1249.851562 1297.308594 L 1249.851562 1329.996094 C 1249.851562 1341.171875 1254.601562 1346.773438 1264.101562 1346.773438 C 1273.230469 1346.773438 1277.808594 1341.371094 1277.808594 1330.582031 L 1277.808594 1297.308594 L 1283.738281 1297.308594 L 1283.738281 1329.558594 "/>
<path fill-rule="nonzero" fill="rgb(19.213867%, 30.979919%, 7.054138%)" fill-opacity="1" d="M 1335.511719 1351.238281 L 1328.398438 1351.238281 L 1319.351562 1336.070312 C 1317.421875 1332.847656 1315.691406 1330.71875 1314.148438 1329.695312 C 1312.609375 1328.667969 1310.761719 1328.15625 1308.578125 1328.15625 L 1303.230469 1328.15625 L 1303.230469 1351.238281 L 1297.328125 1351.238281 L 1297.328125 1297.308594 L 1313.199219 1297.308594 C 1318.148438 1297.308594 1322.089844 1298.597656 1325.011719 1301.160156 C 1327.929688 1303.722656 1329.390625 1307.222656 1329.390625 1311.675781 C 1329.390625 1319.128906 1325.398438 1323.953125 1317.449219 1326.179688 L 1317.449219 1326.328125 C 1318.960938 1326.992188 1320.210938 1327.855469 1321.199219 1328.945312 C 1322.191406 1330.03125 1323.601562 1332.070312 1325.429688 1335.046875 Z M 1303.230469 1302.847656 L 1303.230469 1322.667969 L 1312.058594 1322.667969 C 1315.390625 1322.667969 1318.058594 1321.691406 1320.101562 1319.753906 C 1322.140625 1317.816406 1323.160156 1315.277344 1323.160156 1312.148438 C 1323.160156 1309.226562 1322.210938 1306.9375 1320.320312 1305.296875 C 1318.421875 1303.660156 1315.699219 1302.847656 1312.128906 1302.847656 L 1303.230469 1302.847656 "/>
<path fill-rule="nonzero" fill="rgb(19.213867%, 30.979919%, 7.054138%)" fill-opacity="1" d="M 1384.410156 1351.238281 L 1377.859375 1351.238281 L 1371.988281 1335.921875 L 1348.871094 1335.921875 L 1343.421875 1351.238281 L 1336.820312 1351.238281 L 1357.558594 1297.308594 L 1363.558594 1297.308594 Z M 1369.980469 1330.507812 L 1361.359375 1307.199219 C 1361.050781 1306.347656 1360.78125 1305.160156 1360.558594 1303.648438 L 1360.378906 1303.648438 C 1360.109375 1305.335938 1359.808594 1306.523438 1359.5 1307.199219 L 1350.960938 1330.507812 L 1369.980469 1330.507812 "/>
<path fill-rule="nonzero" fill="rgb(19.213867%, 30.979919%, 7.054138%)" fill-opacity="1" d="M 1435.589844 1351.238281 L 1428.148438 1351.238281 L 1400.019531 1307.722656 C 1399.429688 1306.8125 1398.859375 1305.6875 1398.328125 1304.347656 L 1398.140625 1304.347656 C 1398.308594 1305.734375 1398.398438 1308.199219 1398.398438 1311.714844 L 1398.398438 1351.238281 L 1392.460938 1351.238281 L 1392.460938 1297.308594 L 1400.300781 1297.308594 L 1427.679688 1340.246094 C 1428.941406 1342.222656 1429.660156 1343.410156 1429.839844 1343.800781 L 1429.980469 1343.800781 C 1429.710938 1342.023438 1429.578125 1339.359375 1429.578125 1335.820312 L 1429.578125 1297.308594 L 1435.589844 1297.308594 L 1435.589844 1351.238281 "/>
<path fill-rule="nonzero" fill="rgb(19.213867%, 30.979919%, 7.054138%)" fill-opacity="1" d="M 1481.339844 1302.773438 L 1465.78125 1302.773438 L 1465.78125 1351.238281 L 1459.800781 1351.238281 L 1459.800781 1302.773438 L 1444.308594 1302.773438 L 1444.308594 1297.308594 L 1481.339844 1297.308594 L 1481.339844 1302.773438 "/>
</svg>
